<svg width="1105" height="971" viewBox="0 0 1105 971" fill="none" xmlns="http://www.w3.org/2000/svg">
<path d="M908.516 420.394C911.182 457.743 884.631 490.766 839.272 513.91C793.937 537.042 729.931 550.234 658.004 547.971C586.077 545.709 519.896 528.422 471.046 502.327C422.171 476.219 390.775 441.374 388.109 404.025C385.443 366.676 411.994 333.653 457.353 310.509C502.688 287.377 566.694 274.185 638.621 276.448C710.548 278.71 776.729 295.997 825.579 322.092C874.454 348.2 905.85 383.045 908.516 420.394Z" stroke="url(#paint0_linear_3128_1161)" stroke-opacity="0.2"/>
<path d="M1026.6 424.108C1030.48 478.5 991.813 526.536 925.883 560.176C859.976 593.805 766.944 612.976 662.41 609.688C557.876 606.4 461.681 581.277 390.666 543.341C319.625 505.392 273.911 454.702 270.028 400.311C266.145 345.919 304.811 297.883 370.741 264.243C436.648 230.614 529.68 211.443 634.214 214.731C738.749 218.019 834.943 243.142 905.959 281.078C976.999 319.027 1022.71 369.717 1026.6 424.108Z" stroke="url(#paint1_linear_3128_1161)" stroke-opacity="0.2"/>
<path d="M1170.28 428.628C1175.64 503.757 1122.23 570.062 1031.27 616.474C940.334 662.876 811.982 689.322 667.771 684.786C523.56 680.25 390.845 645.591 292.858 593.248C194.846 540.891 131.709 470.92 126.346 395.791C120.983 320.662 174.391 254.358 265.352 207.945C356.29 161.544 484.643 135.097 628.854 139.633C773.064 144.169 905.779 178.828 1003.77 231.172C1101.78 283.529 1164.92 353.499 1170.28 428.628Z" stroke="url(#paint2_linear_3128_1161)" stroke-opacity="0.2"/>
<defs>
<linearGradient id="paint0_linear_3128_1161" x1="401.544" y1="389.118" x2="879.794" y2="413.13" gradientUnits="userSpaceOnUse">
<stop stop-color="white"/>
<stop offset="0.491388" stop-color="white" stop-opacity="0.36"/>
<stop offset="1" stop-color="white"/>
</linearGradient>
<linearGradient id="paint1_linear_3128_1161" x1="289.774" y1="378.66" x2="984.638" y2="413.547" gradientUnits="userSpaceOnUse">
<stop stop-color="white"/>
<stop offset="0.491388" stop-color="white" stop-opacity="0.36"/>
<stop offset="1" stop-color="white"/>
</linearGradient>
<linearGradient id="paint2_linear_3128_1161" x1="153.772" y1="365.934" x2="1112.22" y2="414.054" gradientUnits="userSpaceOnUse">
<stop stop-color="white"/>
<stop offset="0.491388" stop-color="white" stop-opacity="0.36"/>
<stop offset="1" stop-color="white"/>
</linearGradient>
</defs>
</svg>
